<svg xmlns="http://www.w3.org/2000/svg" xmlns:xlink="http://www.w3.org/1999/xlink" version="1.1" x="0px" y="0px" viewBox="0 0 100 125" enable-background="new 0 0 100 100" xml:space="preserve"><path d="M50,5C25.188,5,5,25.188,5,50s20.188,45,45,45s45-20.188,45-45S74.813,5,50,5z M50,15.589  c9.449,0,17.135,7.688,17.135,17.137c0,9.448-7.686,19.477-17.135,19.477S32.865,42.174,32.863,32.726  C32.863,23.277,40.551,15.589,50,15.589z M50,89.706c-13.1,0-24.714-6.347-31.946-16.13c0.613-10.751,8.651-19.511,19.081-21.196  c3.324,2.532,7.471,4.04,11.963,4.04h1.804c4.492,0,8.639-1.508,11.964-4.04c10.43,1.686,18.468,10.445,19.081,21.196  C74.715,83.359,63.1,89.706,50,89.706z"/><text x="0" y="115" fill="#000000" font-size="5px" font-weight="bold" font-family="'Helvetica Neue', Helvetica, Arial-Unicode, Arial, Sans-serif">Created by Wilson Joseph</text><text x="0" y="120" fill="#000000" font-size="5px" font-weight="bold" font-family="'Helvetica Neue', Helvetica, Arial-Unicode, Arial, Sans-serif">from the Noun Project</text></svg>